<?xml version="1.0" standalone="no"?>
<!DOCTYPE svg PUBLIC "-//W3C//DTD SVG 20010904//EN"
 "http://www.w3.org/TR/2001/REC-SVG-20010904/DTD/svg10.dtd">
<svg version="1.0" xmlns="http://www.w3.org/2000/svg"
 width="512.000000pt" height="512.000000pt" viewBox="0 0 512.000000 512.000000"
 preserveAspectRatio="xMidYMid meet">
<metadata>
Created by potrace 1.14, written by Peter Selinger 2001-2017
</metadata>
<g transform="translate(0.000000,512.000000) scale(0.100000,-0.100000)"
fill="#000000" stroke="none">
<path d="M1989 5116 c-2 -2 -17 -6 -34 -9 -201 -35 -388 -196 -455 -393 -31
-90 -32 -96 -35 -319 -2 -115 -4 -219 -4 -230 -1 -20 -8 -20 -524 -21 -478 0
-527 -2 -577 -19 -171 -56 -279 -161 -335 -325 -18 -51 -19 -94 -21 -562 l-2
-508 211 -1 c234 0 240 -1 326 -23 117 -30 247 -113 328 -209 48 -57 116 -181
132 -242 34 -130 29 -281 -13 -399 -63 -174 -183 -304 -349 -381 -107 -49
-167 -58 -402 -61 -116 -1 -215 -3 -222 -3 -19 -2 -16 -967 3 -1039 46 -175
175 -305 349 -354 52 -14 126 -16 553 -17 270 -1 492 2 493 6 1 5 2 105 3 223
3 253 11 302 74 429 210 431 802 490 1101 111 68 -86 119 -202 135 -305 2 -16
5 -128 5 -248 l1 -217 493 0 c534 1 546 2 655 57 131 66 237 210 260 353 3 19
6 263 6 543 0 447 2 507 16 508 8 0 112 2 230 3 214 4 231 5 299 27 205 66
352 219 410 427 22 81 21 251 -2 322 -67 201 -200 341 -385 406 -83 29 -152
35 -392 37 l-175 2 -1 520 c0 467 -2 526 -18 580 -50 169 -183 298 -356 346
-33 9 -184 13 -565 13 l-520 1 -2 210 c-2 243 -14 320 -69 430 -36 74 -116
168 -184 218 -99 72 -205 107 -341 113 -53 2 -98 2 -100 0z"/>
</g>
</svg>
